<?xml version="1.0" standalone="no"?>
<svg viewBox="0 0 200 200" xmlns="http://www.w3.org/2000/svg">
  <path fill="#111111" d="M41.5,-69.8C49.8,-59.2,49.9,-41,56.6,-26C63.3,-10.9,76.7,1,74.8,10.4C72.8,19.7,55.5,26.4,44.3,37.1C33,47.9,27.9,62.7,18.2,68.6C8.5,74.4,-5.8,71.4,-16.3,64.3C-26.9,57.2,-33.7,46.2,-46.2,37.1C-58.7,28,-76.9,20.8,-79.6,10.7C-82.2,0.5,-69.3,-12.6,-58.3,-22.5C-47.3,-32.3,-38.2,-38.8,-28.8,-48.8C-19.4,-58.9,-9.7,-72.5,3.4,-77.8C16.6,-83.2,33.2,-80.3,41.5,-69.8Z" transform="translate(100 100)" />
</svg>
